<svg xmlns="http://www.w3.org/2000/svg" width="185" height="167" viewBox="0 0 185 167" version="1.1">
	<path d="M 73.942 7.948 C 69.748 9.221, 66.702 11.047, 63 14.510 C 61.075 16.310, 58.375 18.102, 57 18.491 C 50.291 20.393, 43.284 27.954, 41.648 35.056 C 41.324 36.462, 39.242 39.523, 37.020 41.858 C 28.834 50.464, 25.229 62.955, 28.934 69.878 C 30.038 71.939, 29.854 72.936, 27.515 77.559 C 22.558 87.356, 23.252 96.780, 29.612 106.026 C 31.948 109.422, 33 112.088, 33 114.610 C 33 121.183, 35.229 126.264, 40.479 131.660 C 43.891 135.167, 46.811 137.168, 49.590 137.906 C 53.102 138.838, 53.841 139.522, 54.812 142.746 C 59.597 158.625, 82.416 164.547, 90.751 152.072 L 93.041 148.643 92.771 81.902 L 92.500 15.160 90 12.451 C 85.643 7.730, 79.935 6.129, 73.942 7.948 M 107.258 7.668 C 103.992 8.351, 99.373 13.386, 98.637 17.065 C 98.287 18.817, 98.001 48.881, 98.002 83.875 C 98.003 142.473, 98.141 147.771, 99.752 150.929 C 102.373 156.070, 106.085 158.306, 112.803 158.792 C 117.302 159.118, 119.822 158.702, 123.846 156.971 C 129.734 154.438, 137.495 146.574, 138.465 142.158 C 138.854 140.390, 140.857 138.040, 143.938 135.740 C 147.261 133.260, 149.664 130.342, 151.536 126.517 C 154.064 121.349, 154.234 120.241, 153.765 112.014 C 153.288 103.655, 153.400 102.973, 155.578 100.927 C 159.602 97.146, 162 90.661, 162 83.558 C 162 76.866, 161.042 73.619, 157.559 68.509 C 155.961 66.164, 155.592 64.283, 155.850 59.795 C 156.386 50.488, 150.175 39.209, 142.512 35.573 C 140.580 34.656, 139 33.400, 139 32.782 C 139 32.163, 138.401 30.947, 137.669 30.079 C 136.938 29.210, 135.570 26.413, 134.630 23.862 C 130.713 13.237, 117.635 5.499, 107.258 7.668 M 72.324 16.944 C 70.577 18.009, 68.130 20.257, 66.886 21.940 C 65.389 23.965, 63.757 25.001, 62.062 25.004 C 56.198 25.012, 49.891 31.438, 48.507 38.814 C 48.041 41.301, 46.514 43.556, 43.502 46.207 C 37.658 51.351, 34.603 57.783, 35.255 63.568 C 35.909 69.375, 37.396 71, 42.057 71 C 47.190 71, 50.867 69.487, 54.683 65.807 C 59.427 61.232, 60.577 57.777, 58.972 52.915 C 57.779 49.300, 57.844 48.685, 59.678 46.217 C 62.307 42.681, 67.086 42.086, 69.941 44.941 C 72.481 47.481, 72.620 52.380, 70.220 54.780 C 69.241 55.759, 67.619 58.710, 66.615 61.337 C 64.293 67.419, 56.291 75.547, 51.249 76.948 C 49.187 77.520, 44.771 77.991, 41.435 77.994 C 35.480 78, 35.340 78.064, 33.685 81.534 C 30.284 88.666, 31.936 97.977, 37.694 104.138 C 39.726 106.313, 40.190 107.894, 40.330 113.138 C 40.600 123.244, 46.799 130.987, 54.628 130.996 C 59.422 131.002, 60.665 128.802, 58.537 124.082 C 57.018 120.714, 56.967 119.840, 58.148 117.378 C 60.014 113.484, 64.066 112.158, 67.407 114.347 C 71.118 116.779, 71.674 120.359, 69.131 125.451 C 67.959 127.799, 67 130.198, 67 130.783 C 67 131.368, 65.619 133.228, 63.930 134.916 C 61.572 137.274, 61.023 138.508, 61.562 140.243 C 63.614 146.854, 69.660 151, 77.246 151 C 85.049 151, 85 151.191, 85 120.809 L 85 94.275 79.356 93.612 C 74.755 93.071, 72.992 93.323, 69.825 94.974 C 64.963 97.508, 63.909 97.503, 60.635 94.927 C 55.506 90.893, 58.444 82.595, 64.937 82.779 C 66.732 82.830, 69.100 83.686, 70.199 84.680 C 71.669 86.010, 73.824 86.490, 78.349 86.494 L 84.500 86.500 84.763 52.594 C 85 22.105, 84.859 18.501, 83.359 16.844 C 81.190 14.448, 76.346 14.492, 72.324 16.944 M 107.655 16.829 C 106.230 18.403, 106 21.462, 106 38.829 L 106 59 113.542 59 C 119.701 59, 121.477 58.633, 123.230 57 C 126.280 54.159, 130.406 54.429, 132.927 57.635 C 134.067 59.084, 135 61.048, 135 62 C 135 62.952, 134.067 64.916, 132.927 66.365 C 130.547 69.392, 126.633 69.832, 123.240 67.456 C 121.628 66.327, 119.082 65.991, 113.768 66.206 L 106.500 66.500 106.232 90.750 L 105.964 115 110.523 115 C 113.604 115, 116.014 114.310, 117.960 112.871 C 125.020 107.652, 132.668 117.189, 126.427 123.430 C 124.433 125.424, 118.633 125.467, 117 123.500 C 116.205 122.542, 113.993 122, 110.878 122 L 106 122 106 134.277 C 106 150.274, 106.638 151.383, 115.512 150.818 C 120.411 150.506, 122.542 149.824, 125.381 147.659 C 129.475 144.536, 132 140.306, 132 136.570 C 132 134.656, 132.912 133.573, 135.750 132.118 C 145.378 127.180, 149.552 116.044, 145.452 106.232 C 142.003 97.977, 136.531 94.614, 128.098 95.568 C 122.747 96.174, 122.139 96.037, 120.636 93.891 C 118.321 90.585, 118.605 87.304, 121.455 84.455 C 124.715 81.194, 127.598 81.358, 131 85 C 132.541 86.650, 134.315 88, 134.941 88 C 136.942 88, 143.440 91.712, 146.107 94.380 L 148.688 96.961 150.777 94.730 C 155.317 89.885, 156.223 82.290, 153.086 75.383 C 152.058 73.118, 150.259 70.594, 149.088 69.774 C 147.114 68.392, 147.040 67.912, 148.062 63.146 C 149.564 56.143, 147.370 49.470, 141.956 44.579 C 138.376 41.345, 137.650 41.086, 133.678 41.631 C 129.771 42.166, 129.102 41.946, 127.162 39.479 C 124.628 36.257, 124.443 34.119, 126.468 31.441 C 128.609 28.610, 128.329 26.120, 125.442 22.335 C 120.582 15.964, 111.096 13.027, 107.655 16.829" stroke="none" fill="#0f0e48" fill-rule="evenodd"/>
</svg>